<svg xmlns="http://www.w3.org/2000/svg" width="24" height="24" version="1.1"><g transform="translate(0 -1028.4)"><path fill="#c0392b" d="m2 1034.4c-1.1046 0-2 0.9-2 2v2 8 2c0 1.1 0.89543 2 2 2h16 4c1.105 0 2-0.9 2-2v-10-2c0-1.1-0.895-2-2-2h-4-12-4z"/><path fill="#c0392b" d="m2 1031.4c-1.1046 0-2 0.9-2 2v2 8 2c0 1.1 0.89543 2 2 2h16 4c1.105 0 2-0.9 2-2v-10-2c0-1.1-0.895-2-2-2h-4-12-4z"/><path fill="#e74c3c" d="m2 1033.4c-1.1046 0-2 0.9-2 2v2 8 2c0 1.1 0.89543 2 2 2h16 4c1.105 0 2-0.9 2-2v-10-2c0-1.1-0.895-2-2-2h-4-12-4z"/><path fill="#c0392b" d="m17 13a6 6 0 1 1 -12 0 6 6 0 1 1 12 0z" transform="translate(1 1029.4)"/><path fill="#ecf0f1" d="m17 13a6 6 0 1 1 -12 0 6 6 0 1 1 12 0z" transform="translate(1 1028.4)"/><path fill="#34495e" d="m15 12.5a3 3.5 0 1 1 -6 0 3 3.5 0 1 1 6 0z" transform="matrix(1.3333 0 0 1.1429 -4 1027.1)"/><path fill="#2c3e50" d="m15 12.5a3 3.5 0 1 1 -6 0 3 3.5 0 1 1 6 0z" transform="matrix(1 0 0 .85714 0 1030.6)"/><path fill="#34495e" d="m14 13a2 2 0 1 1 -4 0 2 2 0 1 1 4 0z" transform="translate(0 1028.4)"/><path fill="#3498db" d="m13 13a1 1 0 1 1 -2 0 1 1 0 1 1 2 0z" transform="translate(0 1028.4)"/><path fill="#ecf0f1" d="m25 12.5a1.5 1.5 0 1 1 -3 0 1.5 1.5 0 1 1 3 0z" transform="matrix(.66667 0 0 .66666 -4.6667 1031)"/><rect width="3" height="1" x="19" y="1036.4" fill="#ecf0f1"/><rect width="3" height="1" x="19" y="1035.4" fill="#7f8c8d"/><path fill="#c0392b" d="m4 2c-1.1046 0-2 0.8954-2 2h2 3 2c0-1.1046-0.8954-2-2-2h-3z" transform="translate(0 1028.4)"/></g></svg>